grf
version=1
nRows=15
nColumns=37
inDegrees=no
endheader
time	ground_force_1_vx	ground_force_1_vy	ground_force_1_vz	ground_force_1_px	ground_force_1_py	ground_force_1_pz	ground_moment_1_mx	ground_moment_1_my	ground_moment_1_mz	ground_force_2_vx	ground_force_2_vy	ground_force_2_vz	ground_force_2_px	ground_force_2_py	ground_force_2_pz	ground_moment_2_mx	ground_moment_2_my	ground_moment_2_mz	ground_force_3_vx	ground_force_3_vy	ground_force_3_vz	ground_force_3_px	ground_force_3_py	ground_force_3_pz	ground_moment_3_mx	ground_moment_3_my	ground_moment_3_mz	ground_force_4_vx	ground_force_4_vy	ground_force_4_vz	ground_force_4_px	ground_force_4_py	ground_force_4_pz	ground_moment_4_mx	ground_moment_4_my	ground_moment_4_mz
      5.12000000	      0.00000000	     -0.00000000	      0.00000000	      0.00000000	      0.00000000	      0.00000000	      0.00000000	      0.00000000	      0.00000000	     23.33390808	      1.38878942	    -22.54591560	   -146.54358286	  -1083.45329419	      0.00000000	      0.00000000	      0.00000000	    320.81796010	     19.99025122	    -47.30381568	   -734.70007324	   -312.02629033	   -793.26711459	      0.00000000	      0.00000000	     -0.00000000	  -2029.82814831	      0.00000000	     -0.00000000	      0.00000000	      0.00000000	      0.00000000	      0.00000000	      0.00000000	      0.00000000	      0.00000000
      5.13000000	      0.00000000	     -0.00000000	      0.00000000	      0.00000000	      0.00000000	      0.00000000	      0.00000000	      0.00000000	      0.00000000	     17.96875381	      2.36357117	    -34.11022949	   -153.72025294	  -1091.35192946	      0.00000000	      0.00000000	      0.00000000	    263.80185309	     22.37005949	    -49.04829984	   -731.26867676	   -312.34036782	   -792.71239960	      0.00000000	      0.00000000	     -0.00000000	  -1784.22834884	      0.00000000	     -0.00000000	      0.00000000	      0.00000000	      0.00000000	      0.00000000	      0.00000000	      0.00000000	      0.00000000
      5.14000000	      0.00000000	     -0.00000000	      0.00000000	      0.00000000	      0.00000000	      0.00000000	      0.00000000	      0.00000000	      0.00000000	     -0.93905962	      4.79896832	    -57.94010162	   -150.14403360	  -1089.79299609	      0.00000000	      0.00000000	      0.00000000	    192.43006374	     23.90020118	    -50.71129436	   -725.15802002	   -311.94877261	   -792.71721888	      0.00000000	      0.00000000	     -0.00000000	  -1908.23336001	      0.00000000	     -0.00000000	      0.00000000	      0.00000000	      0.00000000	      0.00000000	      0.00000000	      0.00000000	      0.00000000
      5.15000000	      0.00000000	     -0.00000000	      0.00000000	      0.00000000	      0.00000000	      0.00000000	      0.00000000	      0.00000000	      0.00000000	    -14.34904957	      6.60947990	    -88.49897003	   -152.75008494	  -1089.47574786	      0.00000000	      0.00000000	      0.00000000	    341.93731710	     24.66159367	    -51.93315340	   -718.58630371	   -311.51627909	   -791.86509836	      0.00000000	      0.00000000	     -0.00000000	  -1769.39080925	      0.00000000	     -0.00000000	      0.00000000	      0.00000000	      0.00000000	      0.00000000	      0.00000000	      0.00000000	      0.00000000
      5.16000000	      0.00000000	     -0.00000000	      0.00000000	      0.00000000	      0.00000000	      0.00000000	      0.00000000	      0.00000000	      0.00000000	    -13.40581989	      5.50186348	   -113.37075806	   -158.72539397	  -1092.97025895	      0.00000000	      0.00000000	      0.00000000	    558.21991900	     25.11934198	    -53.10429983	   -706.13122559	   -310.43114950	   -792.11726957	      0.00000000	      0.00000000	      0.00000000	  -1830.54577210	      0.00000000	     -0.00000000	      0.00000000	      0.00000000	      0.00000000	      0.00000000	      0.00000000	      0.00000000	      0.00000000
      5.17000000	      0.00000000	     -0.00000000	      0.00000000	      0.00000000	      0.00000000	      0.00000000	      0.00000000	      0.00000000	      0.00000000	     -4.57430935	      9.74189854	   -132.38960266	   -162.92520727	  -1095.90255034	      0.00000000	      0.00000000	      0.00000000	   1178.12139407	     25.31052114	    -54.39224846	   -689.96069336	   -309.26835388	   -791.07221409	      0.00000000	      0.00000000	     -0.00000000	  -1729.14189632	      0.00000000	     -0.00000000	      0.00000000	      0.00000000	      0.00000000	      0.00000000	      0.00000000	      0.00000000	      0.00000000
      5.18000000	      0.00000000	     -0.00000000	      0.00000000	      0.00000000	      0.00000000	      0.00000000	      0.00000000	      0.00000000	      0.00000000	     -3.39128351	     13.71298218	   -154.54217529	   -167.64668038	  -1098.44988249	      0.00000000	      0.00000000	      0.00000000	   1459.34176858	     25.30632302	    -54.93979103	   -667.28283691	   -307.79842952	   -790.98560716	      0.00000000	     -0.00000000	     -0.00000000	  -1624.94762821	      0.00000000	     -0.00000000	      0.00000000	      0.00000000	      0.00000000	      0.00000000	      0.00000000	      0.00000000	      0.00000000
      5.19000000	      0.00000000	     -0.00000000	      0.00000000	      0.00000000	      0.00000000	      0.00000000	      0.00000000	      0.00000000	      0.00000000	    -11.50858784	     16.50241280	   -177.75138855	   -169.79843052	  -1099.21113535	      0.00000000	      0.00000000	      0.00000000	   1624.66816906	     25.23146726	    -54.34185249	   -641.63446045	   -306.88518815	   -790.55654050	      0.00000000	     -0.00000000	     -0.00000000	  -1432.59869555	      0.00000000	     -0.00000000	      0.00000000	      0.00000000	      0.00000000	      0.00000000	      0.00000000	      0.00000000	      0.00000000
      5.20000000	      0.00000000	     -0.00000000	      0.00000000	      0.00000000	      0.00000000	      0.00000000	      0.00000000	      0.00000000	      0.00000000	    -20.12276459	     19.93952751	   -199.54666138	   -170.14899771	  -1097.62980863	      0.00000000	      0.00000000	      0.00000000	   1582.23576221	     25.51095880	    -53.06816706	   -611.46099854	   -306.34136518	   -791.12904917	      0.00000000	      0.00000000	     -0.00000000	  -1291.42874569	      0.00000000	     -0.00000000	      0.00000000	      0.00000000	      0.00000000	      0.00000000	      0.00000000	      0.00000000	      0.00000000
      5.21000000	      0.00000000	     -0.00000000	      0.00000000	      0.00000000	      0.00000000	      0.00000000	      0.00000000	      0.00000000	      0.00000000	    -20.14919472	     20.37375450	   -218.41728210	   -173.26012200	  -1098.12339353	      0.00000000	      0.00000000	      0.00000000	   1730.79258330	     26.41096428	    -51.49154894	   -581.48645020	   -305.23643374	   -790.67009909	      0.00000000	      0.00000000	      0.00000000	  -1252.06229677	      0.00000000	     -0.00000000	      0.00000000	      0.00000000	      0.00000000	      0.00000000	      0.00000000	      0.00000000	      0.00000000
      5.22000000	      0.00000000	     -0.00000000	      0.00000000	      0.00000000	      0.00000000	      0.00000000	      0.00000000	      0.00000000	      0.00000000	    -17.20549202	     19.37979889	   -235.67553711	   -174.54212718	  -1098.84416887	      0.00000000	      0.00000000	      0.00000000	   2210.85839033	     26.30912538	    -49.59898606	   -555.49896240	   -303.70948478	   -791.00620594	      0.00000000	      0.00000000	     -0.00000000	  -1174.09100796	      0.00000000	     -0.00000000	      0.00000000	      0.00000000	      0.00000000	      0.00000000	      0.00000000	      0.00000000	      0.00000000
      5.23000000	      0.00000000	     -0.00000000	      0.00000000	      0.00000000	      0.00000000	      0.00000000	      0.00000000	      0.00000000	      0.00000000	    -19.96828270	     20.44651031	   -256.54989624	   -179.08156743	  -1098.26255370	      0.00000000	      0.00000000	      0.00000000	   2524.65724474	     24.29422720	    -48.18571685	   -534.65179443	   -300.43481734	   -790.01867313	      0.00000000	      0.00000000	     -0.00000000	  -1207.81202368	      0.00000000	     -0.00000000	      0.00000000	      0.00000000	      0.00000000	      0.00000000	      0.00000000	      0.00000000	      0.00000000
      5.24000000	      0.00000000	     -0.00000000	      0.00000000	      0.00000000	      0.00000000	      0.00000000	      0.00000000	      0.00000000	      0.00000000	    -19.60306168	     25.33626366	   -284.40191650	   -185.18814733	  -1099.17037450	      0.00000000	      0.00000000	      0.00000000	   2551.88780079	     21.84881944	    -46.94907952	   -512.80725098	   -295.70603478	   -789.00206873	      0.00000000	      0.00000000	     -0.00000000	  -1196.66456104	      0.00000000	     -0.00000000	      0.00000000	      0.00000000	      0.00000000	      0.00000000	      0.00000000	      0.00000000	      0.00000000
      5.25000000	      0.00000000	     -0.00000000	      0.00000000	      0.00000000	      0.00000000	      0.00000000	      0.00000000	      0.00000000	      0.00000000	    -18.73420715	     30.05302238	   -316.12265015	   -193.39675850	  -1097.73946777	      0.00000000	      0.00000000	      0.00000000	   2671.52039572	     18.11125735	    -45.91307989	   -488.66137695	   -290.41875948	   -786.95838274	      0.00000000	      0.00000000	     -0.00000000	  -1155.96512024	      0.00000000	     -0.00000000	      0.00000000	      0.00000000	      0.00000000	      0.00000000	      0.00000000	      0.00000000	      0.00000000
      5.26000000	      0.00000000	     -0.00000000	      0.00000000	      0.00000000	      0.00000000	      0.00000000	      0.00000000	      0.00000000	      0.00000000	    -16.62101746	     33.76374054	   -355.85089111	   -201.28153234	  -1098.94051107	      0.00000000	      0.00000000	      0.00000000	   3047.01264490	     14.19679163	    -43.82235842	   -457.70343018	   -282.87268320	   -786.57936948	      0.00000000	      0.00000000	      0.00000000	   -897.29337588	      0.00000000	     -0.00000000	      0.00000000	      0.00000000	      0.00000000	      0.00000000	      0.00000000	      0.00000000	      0.00000000
